# xmcd CD database file
#
# Track frame offsets:
#	150
#	12957
#	24594
#	39715
#	53037
#	64975
#	78760
#	90252
#	102427
#	114272
#
# Disc length: 1725 seconds
#
# Revision: 0
# Processed by: cddbd v1.5.2PL0 Copyright (c) Steve Scherf et al.
# Submitted via: CDex 1.70beta2
#
DISCID=7006bb0a
DTITLE=Martha White - Face To Face
DYEAR=1900
DGENRE=Country
TTITLE0=I Learn Something New Every Day
TTITLE1=Swingin' Doors  (electric solo)
TTITLE2=Face To Face
TTITLE3=I Wish I Felt This Way At Home
TTITLE4=Special Occasions
TTITLE5=Give A Little Bit Back
TTITLE6=Oklahoma Tornado
TTITLE7=Let's Split A Heartache
TTITLE8=I Heard It From My Heart
TTITLE9=Can't Get Used To Losin' You
EXTD=
EXTT0=
EXTT1=
EXTT2=
EXTT3=
EXTT4=
EXTT5=
EXTT6=
EXTT7=
EXTT8=
EXTT9=
PLAYORDER=
